<svg xmlns="http://www.w3.org/2000/svg" width="744.34" height="800" viewBox="0 0 744.34 800" xmlns:xlink="http://www.w3.org/1999/xlink" role="img" artist="Katerina Limpitsouni" source="https://undraw.co/"><g transform="translate(-691 -161)"><g transform="translate(1207.862 255.287)"><rect width="2.068" height="135.105" transform="translate(0.905 2.299) rotate(-46.407)" fill="#090814"/><path d="M501.081,143.982l-2.066.125.624,10.178-10.2-.122-.022,2.069,12.42.147Z" transform="translate(-400.739 -60.125)" fill="#090814"/><path d="M430.162,76.354l-.022,2.069-10.2-.122.624,10.178L418.5,88.6l-.755-12.4Z" transform="translate(-417.745 -76.206)" fill="#090814"/><circle cx="11.374" cy="11.374" r="11.374" transform="translate(39.173 36.754)" fill="#090814"/></g><g transform="translate(819.447 255.287)"><rect width="135.105" height="2.068" transform="translate(0.91 93.96) rotate(-43.593)" fill="#090814"/><path d="M103.815,156.378l12.42-.147-.023-2.069-10.2.122.624-10.178-2.066-.125Z" transform="translate(-103.815 -60.125)" fill="#090814"/><path d="M187.908,76.206l-.756,12.4-2.066-.125.622-10.178-10.2.122-.022-2.069Z" transform="translate(-86.809 -76.206)" fill="#090814"/><circle cx="11.374" cy="11.374" r="11.374" transform="translate(39.176 36.754)" fill="#090814"/></g><path d="M704.065,370.752H532.42a9.317,9.317,0,0,1-9.306-9.306V144.306A9.317,9.317,0,0,1,532.42,135H704.065a9.316,9.316,0,0,1,9.306,9.306v217.14a9.317,9.317,0,0,1-9.306,9.306ZM532.42,137.068a7.246,7.246,0,0,0-7.238,7.238v217.14a7.246,7.246,0,0,0,7.238,7.238H704.065a7.246,7.246,0,0,0,7.238-7.238V144.306a7.246,7.246,0,0,0-7.238-7.238Z" transform="translate(444.927 26)" fill="#3f3d56"/><path d="M596.6,229.693H558.815a4.658,4.658,0,0,1-4.653-4.653V180.454a4.658,4.658,0,0,1,4.653-4.653H596.6a4.658,4.658,0,0,1,4.653,4.653V225.04A4.658,4.658,0,0,1,596.6,229.693Z" transform="translate(452.294 35.681)" fill="#6c63ff"/><path d="M655.933,246.407H618.151a4.658,4.658,0,0,1-4.653-4.653V197.169a4.658,4.658,0,0,1,4.653-4.653h37.782a4.658,4.658,0,0,1,4.653,4.653v44.586A4.658,4.658,0,0,1,655.933,246.407Z" transform="translate(466.372 39.647)" fill="#e6e6e6"/><path d="M608.3,297.386H570.515a4.658,4.658,0,0,1-4.653-4.653V248.147a4.658,4.658,0,0,1,4.653-4.653H608.3a4.658,4.658,0,0,1,4.653,4.653v44.586a4.658,4.658,0,0,1-4.653,4.653Z" transform="translate(455.07 51.742)" fill="#ff6584"/><path d="M927.979,551.209H756.335a9.317,9.317,0,0,1-9.306-9.306V324.763a9.317,9.317,0,0,1,9.306-9.306H927.979a9.316,9.316,0,0,1,9.306,9.306V541.9a9.317,9.317,0,0,1-9.306,9.306ZM756.335,317.525a7.246,7.246,0,0,0-7.238,7.238V541.9a7.246,7.246,0,0,0,7.238,7.238H927.979a7.246,7.246,0,0,0,7.238-7.238V324.763a7.246,7.246,0,0,0-7.238-7.238Z" transform="translate(498.055 68.816)" fill="#3f3d56"/><path d="M859.828,355.9H800.89a4.136,4.136,0,0,1,0-8.272h58.938a4.136,4.136,0,1,1,0,8.272Z" transform="translate(509.853 76.451)" fill="#6c63ff"/><path d="M894.332,387.661H777.49a4.136,4.136,0,0,1,0-8.272H894.332a4.136,4.136,0,0,1,0,8.272Z" transform="translate(504.301 83.985)" fill="#e6e6e6"/><path d="M894.332,405.211H777.49a4.136,4.136,0,0,1,0-8.272H894.332a4.136,4.136,0,0,1,0,8.272Z" transform="translate(504.301 88.149)" fill="#e6e6e6"/><path d="M894.332,422.761H777.49a4.136,4.136,0,0,1,0-8.272H894.332a4.136,4.136,0,0,1,0,8.272Z" transform="translate(504.301 92.313)" fill="#e6e6e6"/><path d="M894.332,440.311H777.49a4.136,4.136,0,1,1,0-8.272H894.332a4.136,4.136,0,0,1,0,8.272Z" transform="translate(504.301 96.478)" fill="#e6e6e6"/><path d="M894.332,457.861H777.49a4.136,4.136,0,0,1,0-8.272H894.332a4.136,4.136,0,0,1,0,8.272Z" transform="translate(504.301 100.642)" fill="#e6e6e6"/><path d="M894.332,475.411H777.49a4.136,4.136,0,0,1,0-8.272H894.332a4.136,4.136,0,0,1,0,8.272Z" transform="translate(504.301 104.806)" fill="#e6e6e6"/><path d="M480.15,551.209H308.506A9.317,9.317,0,0,1,299.2,541.9V324.763a9.317,9.317,0,0,1,9.306-9.306H480.15a9.317,9.317,0,0,1,9.306,9.306V541.9a9.317,9.317,0,0,1-9.306,9.306ZM308.506,317.525a7.246,7.246,0,0,0-7.238,7.238V541.9a7.246,7.246,0,0,0,7.238,7.238H480.15a7.246,7.246,0,0,0,7.238-7.238V324.763a7.246,7.246,0,0,0-7.238-7.238Z" transform="translate(391.8 68.816)" fill="#3f3d56"/><path d="M434.156,358.479h-51.7a4.136,4.136,0,0,1,0-8.272h51.7a4.136,4.136,0,1,1,0,8.272Z" transform="translate(410.572 77.061)" fill="#3f3d56"/><path d="M434.156,376.029h-51.7a4.136,4.136,0,1,1,0-8.272h51.7a4.136,4.136,0,1,1,0,8.272Z" transform="translate(410.572 81.225)" fill="#3f3d56"/><path d="M368.36,394.77H330.578a4.658,4.658,0,0,1-4.653-4.653V345.532a4.658,4.658,0,0,1,4.653-4.653H368.36a4.658,4.658,0,0,1,4.653,4.653v44.586a4.658,4.658,0,0,1-4.653,4.653Z" transform="translate(398.141 74.848)" fill="#6c63ff"/><path d="M446.358,411.965H329.516a4.136,4.136,0,0,1,0-8.272H446.358a4.136,4.136,0,1,1,0,8.272Z" transform="translate(398.011 89.752)" fill="#e6e6e6"/><path d="M446.358,429.515H329.516a4.136,4.136,0,0,1,0-8.272H446.358a4.136,4.136,0,1,1,0,8.272Z" transform="translate(398.011 93.916)" fill="#e6e6e6"/><path d="M446.358,447.065H329.516a4.136,4.136,0,0,1,0-8.272H446.358a4.136,4.136,0,1,1,0,8.272Z" transform="translate(398.011 98.08)" fill="#e6e6e6"/><path d="M446.358,464.615H329.516a4.136,4.136,0,0,1,0-8.272H446.358a4.136,4.136,0,1,1,0,8.272Z" transform="translate(398.011 102.244)" fill="#e6e6e6"/><path d="M446.358,482.165H329.516a4.136,4.136,0,0,1,0-8.272H446.358a4.136,4.136,0,1,1,0,8.272Z" transform="translate(398.011 106.408)" fill="#e6e6e6"/><g transform="translate(919.373 454.538)"><path d="M485.016,765.474H726.283a1.237,1.237,0,0,0,0-2.474H485.016a1.237,1.237,0,1,0,0,2.474Z" transform="translate(-483.779 -279.534)" fill="#e6e6e6"/><path d="M949.778,760.482l7.643,21.679L933.8,784.019l2.084-23.537Z" transform="translate(-754.411 -318.085)" fill="#ed9da0"/><path d="M821.65,781.256v29.732H794.53l7.649-29.732Z" transform="translate(-727.076 -322.135)" fill="#ed9da0"/><path d="M1000.762,542.094l9.91,94.148,11.79,113.117-20.311,2.3L950.591,576.78,923.957,657.3,919,765.076h-25.4l-3.1-50.171s1.858-167.237,12.388-172.811S1000.762,542.094,1000.762,542.094Z" transform="translate(-823.055 -299.142)" fill="#2f2e41"/><path d="M508.9,604.366V560.5a4.583,4.583,0,0,1,4.578-4.578h37.172a4.583,4.583,0,0,1,4.578,4.578v43.866a4.583,4.583,0,0,1-4.578,4.578H513.473a4.583,4.583,0,0,1-4.578-4.578Z" transform="translate(-407.591 -276.591)" fill="#6c63ff"/><path d="M902.617,827.684s10.591-1.589,10.591-1.059,12.709,34.951,0,34.421-60.9-7.414-57.722-20.123,19.064-9,19.064-9l14.3-7.943Z" transform="translate(-817.552 -354.59)" fill="#2f2e41"/><path d="M1039.67,814.06c-6.09.662-10.591-1.589-10.591-1.059s-12.709,27.83,0,27.3,57.2-.3,54.018-13.008-15.36-9-15.36-9l-14.3-7.943S1045.76,813.4,1039.67,814.06Z" transform="translate(-850.328 -351.933)" fill="#2f2e41"/><circle cx="24.375" cy="24.375" r="24.375" transform="translate(102.374 17.261)" fill="#ed9da0"/><path d="M981.958,288.783s4.336,43.358,9.911,46.455-42.738,6.194-42.738,6.194,11.768-39.641,8.052-43.358S981.958,288.783,981.958,288.783Z" transform="translate(-835.842 -250.231)" fill="#ed9da0"/><path d="M920.477,341.558s17.343-16.724,37.164-13.627,34.067,6.813,34.067,6.813,30.35,16.1,30.97,29.111-11.149,61.94-11.149,61.94-5.575,79.9-6.194,79.9-104.678-1.239-104.678-1.239l19.2-104.058Z" transform="translate(-826.388 -257.79)" fill="#e6e6e6"/><path d="M929.447,508.849c4.014,1.084,10.932-.415,18.155-2.781a225.284,225.284,0,0,0,26.727-11.236s44.6-17.962,57.6-27.253,4.336-46.455,4.336-46.455l-19.821,6.194,1.239,22.918-48.932,31.589a110.391,110.391,0,0,0-22.651,4.553c-8.238,2.707-16.24,6.925-19.133,13.4a12.539,12.539,0,0,0-.954,3.1C925.427,506.3,926.815,508.131,929.447,508.849Z" transform="translate(-831.307 -276.037)" fill="#ed9da0"/><path d="M932.654,406.505l3.716,32.828,6.163,81s34.1,41.021,14.9,42.26-29.731-40.26-29.731-40.26-19.2-65.656-18.582-79.283,0-36.544,0-36.544Z" transform="translate(-828.036 -273.186)" fill="#ed9da0"/><path d="M1041.651,365.726s12.388,4.336,17.343,21.679,3.1,29.112,3.1,29.112l-26.014,4.336Z" transform="translate(-852.794 -265.234)" fill="#e6e6e6"/><path d="M933.766,343.289s-22.3-4.955-25.4,16.1a337.047,337.047,0,0,0-3.1,42.738s21.06-9.91,30.35,0Z" transform="translate(-827.29 -260.761)" fill="#e6e6e6"/><path d="M58.557,39.095a16.809,16.809,0,0,1-9.211,4.833c-3.415.732-7.162.963-9.895,3.1-3.105,2.473-4.471,7.173-8.28,8.218a9.081,9.081,0,0,1-4.958-.393,32.085,32.085,0,0,1-15.52-10.349,13.291,13.291,0,0,0-3.575-3.571,25.851,25.851,0,0,1-2.464-1.2,6.706,6.706,0,0,1-2.008-2.618A25.45,25.45,0,0,1,.865,19.241c.952-3.53,2.67-6.8,3.684-10.352s5.7-10.3,6.8-8.627,2.505,3.24,3.106,5.176c1.172,3.808.114,7.638,3.092,10.283,1.843,1.635,5.175,2.732,6.427.621.5-.818.465-1.851.891-2.7.841-1.657,3.26-1.987,4.864-1.036,1.546,1.068,10.108,3.069,10.518,4.9,2.411,8.156-.589,10.658,8.139,7.169,3.25-1.3,6.711.058,9.837,2.293C62.345,29.915,61.506,35.742,58.557,39.095Z" transform="matrix(-0.946, -0.326, 0.326, -0.946, 150.368, 67.37)" fill="#090814"/></g></g></svg>